# xmcd
#
# Track frame offsets: 
#        150
#        19378
#        34694
#        62524
#        86118
#        102055
#        125670
#        142376
#        159805
#        176324
#        195994
#
# Disc length: 2832 seconds
#
# Revision: 16
# Processed by: cddbd v1.5.2PL0 Copyright (c) Steve Scherf et al.
# Submitted via: ExactAudioCopy v0.99pb4
#
DISCID=8c0b0e0b
DTITLE=KISS - Symphony Alive IV CD 1
DYEAR=2003
DGENRE=Hard Rock
TTITLE0=Deuce (Melbourne Symphony Orchestra)
TTITLE1=Strutter (Melbourne Symphony Orchestra)
TTITLE2=Let Me Go Rock and Roll (Melbourne Symphony Orchestra)
TTITLE3=Lick It Up (Melbourne Symphony Orchestra)
TTITLE4=Calling Dr. Love (Melbourne Symphony Orchestra)
TTITLE5=Psycho Circus (Melbourne Symphony Orchestra)
TTITLE6=Beth (Melbourne Symphony Orchestra)
TTITLE7=Forever (Melbourne Symphony Orchestra)
TTITLE8=Goin' Blind (Melbourne Symphony Orchestra)
TTITLE9=Sure Know Something (Melbourne Symphony Orchestra)
TTITLE10=Shandi (Melbourne Symphony Orchestra)
EXTD=
EXTT0=
EXTT1=
EXTT2=
EXTT3=
EXTT4=
EXTT5=
EXTT6=
EXTT7=
EXTT8=
EXTT9=
EXTT10=
PLAYORDER=
